# xmcd
#
# Track frame offsets: 
#        150
#        12288
#        33061
#        45181
#        59618
#        85283
#        97860
#        111577
#        126799
#        140084
#        156749
#        176997
#        198483
#        213092
#        235508
#        249091
#        268098
#
# Disc length: 3899 seconds
#
# Revision: 0
# Processed by: cddbd v1.5.2PL0 Copyright (c) Steve Scherf et al.
# Submitted via: ExactAudioCopy v0.99pb4
#
DISCID=e90f3911
DTITLE=Tangele - The Pulse of Yiddish Tango
DYEAR=2008
DGENRE=Tango
TTITLE0=Dos Transport Yingl
TTITLE1=Friling
TTITLE2=Es Iz Geven A Zumertog
TTITLE3=Tsi Darf Es Azoy Zayn?
TTITLE4=Dos Lid Fun Bialystoker Geto
TTITLE5=Yidish Tango
TTITLE6=Kinder Yorn
TTITLE7=Der Tango Fun Oshvientshim
TTITLE8=Der Weg Zum Gluck
TTITLE9=Ikh Hob Tsayt, Ikh Vel Vartn
TTITLE10=Ales Farloyrn
TTITLE11=Vu Iz Dayn Shmeykhl?
TTITLE12=Far Mentshn Bin Ikh Freylekh
TTITLE13=Ikh Vel Laydn In Der Shtil
TTITLE14=Ikh Hob Dikh Tsufil Lib
TTITLE15=Ogyn
TTITLE16=Farges Mikh Nisht
EXTD=
EXTT0=
EXTT1=
EXTT2=
EXTT3=
EXTT4=
EXTT5=
EXTT6=
EXTT7=
EXTT8=
EXTT9=
EXTT10=
EXTT11=
EXTT12=
EXTT13=
EXTT14=
EXTT15=
EXTT16=
PLAYORDER=
